<?xml version="1.0" encoding="utf-8"?><!-- Uploaded to: SVG Repo, www.svgrepo.com, Generator: SVG Repo Mixer Tools -->
<svg width="800px" height="800px" viewBox="0 0 24 24" fill="none" xmlns="http://www.w3.org/2000/svg">
<path d="M6 6.5C6 4.01472 8.01472 2 10.5 2C12.9853 2 15 4.01472 15 6.5M12 11.3333V6.50001C12 5.67158 11.3285 5 10.5 5V5C9.6716 5 9.00003 5.67158 9.00003 6.50001V15.9412L7.08296 14.7007C6.47076 14.3046 5.65715 14.4437 5.2113 15.0207V15.0207C4.79881 15.5545 4.82481 16.3063 5.27317 16.8104L9.00003 21H17C17.1588 19.5709 17.4433 17.16 17.6684 15.2701C17.8544 13.7081 16.8042 12.2675 15.2601 11.9672L12 11.3333Z" stroke="#000000" stroke-width="2" stroke-linecap="round" stroke-linejoin="round"/>
</svg>